<svg width="80" height="80" viewBox="0 0 80 80" fill="none" xmlns="http://www.w3.org/2000/svg">
<g clip-path="url(#clip0)">
<rect width="80" height="80" fill="white"/>
<rect width="107.491" height="107" transform="translate(-14 -14)" fill="white"/>
<path d="M39.7454 78.4388C61.3772 78.4388 78.9133 61.0053 78.9133 39.5C78.9133 17.9947 61.3772 0.561157 39.7454 0.561157C18.1136 0.561157 0.577515 17.9947 0.577515 39.5C0.577515 61.0053 18.1136 78.4388 39.7454 78.4388Z" fill="white"/>
<path fill-rule="evenodd" clip-rule="evenodd" d="M39.7454 78.7661C61.2959 78.7661 78.766 61.186 78.766 39.5C78.766 17.814 61.2959 0.233948 39.7454 0.233948C18.1949 0.233948 0.724762 17.814 0.724762 39.5C0.724762 61.186 18.1949 78.7661 39.7454 78.7661Z" fill="#00D563"/>
<mask id="mask0" mask-type="alpha" maskUnits="userSpaceOnUse" x="0" y="0" width="79" height="79">
<path fill-rule="evenodd" clip-rule="evenodd" d="M39.7454 78.7661C61.2959 78.7661 78.766 61.186 78.766 39.5C78.766 17.814 61.2959 0.233948 39.7454 0.233948C18.1949 0.233948 0.724762 17.814 0.724762 39.5C0.724762 61.186 18.1949 78.7661 39.7454 78.7661Z" fill="white"/>
</mask>
<g mask="url(#mask0)">
<path d="M86.6591 105.561C86.0799 106.66 84.7007 107.087 83.5914 106.503L81.0735 105.178L85.9867 112.909C86.6297 113.924 86.3303 115.289 85.3192 115.937L85.167 116.035C84.2197 116.644 82.9779 116.417 82.2908 115.558L83.7338 117.831C84.3768 118.848 84.0774 120.212 83.0663 120.86L82.9141 120.963C81.903 121.61 80.5483 121.311 79.9004 120.295L78.0746 117.414C78.3298 118.322 77.9764 119.329 77.1518 119.864L76.9947 119.962C75.9836 120.614 74.629 120.31 73.9811 119.294L69.4704 112.201C66.3438 110.856 64.3167 107.568 64.7094 103.985C64.7486 103.632 64.8125 103.293 64.9057 102.964C63.9928 102.415 63.2173 101.615 62.7019 100.603L51.6191 78.8452C50.1515 75.9636 51.3098 72.4051 54.191 70.938L54.6867 70.6872C57.5679 69.2201 61.1264 70.3736 62.5939 73.2547L73.6768 95.013C74.0056 95.656 74.2019 96.3382 74.2756 97.0156C74.9382 97.1628 75.9591 97.5309 78.0108 98.4733C81.3336 99.9998 83.9497 101.458 85.7069 102.503C86.8162 103.087 87.2432 104.461 86.6591 105.561" fill="#EDB59D"/>
<path fill-rule="evenodd" clip-rule="evenodd" d="M27.0359 89.8088L27.0429 89.8069C35.7093 89.7487 52.3707 88.385 54.5267 87.9012C56.2317 87.5184 56.6749 85.7293 56.7566 84.3594C61.3789 83.1303 64.4222 78.5298 63.6241 73.7201L59.5326 49.0625C58.685 43.954 53.812 40.4681 48.7035 41.3158C48.1538 41.4071 47.6229 41.545 47.1141 41.7247C46.9611 41.6338 46.8152 41.5508 46.6778 41.4752C44.418 40.2339 41.851 40.2202 39.3238 40.2398C36.1511 40.2644 33.0269 40.7699 29.9225 41.3633C26.7994 41.9602 23.6993 42.8613 20.8942 44.3858C18.4731 45.6188 16.5955 47.8791 15.9616 50.7218L10.5213 75.1178C9.39389 80.1713 12.6068 85.2288 17.6609 86.3557C18.8389 86.6184 20.0171 86.6453 21.1457 86.4681C21.0815 87.6913 21.2343 88.8701 21.9236 89.3958C22.3378 89.7116 24.2826 89.8252 27.0357 89.8069L27.0359 89.8088Z" fill="white"/>
<path d="M27.0429 89.8069L27.0412 89.5615C27.02 89.5616 26.9989 89.5645 26.9785 89.5701L27.0429 89.8069ZM27.0359 89.8088L26.7925 89.8398C26.8015 89.9103 26.8405 89.9734 26.8996 90.0128C26.9586 90.0523 27.0318 90.0642 27.1003 90.0456L27.0359 89.8088ZM54.5267 87.9012L54.5805 88.1407L54.5805 88.1407L54.5267 87.9012ZM56.7566 84.3594L56.6935 84.1223C56.5913 84.1495 56.5179 84.2392 56.5116 84.3448L56.7566 84.3594ZM63.6241 73.7201L63.8662 73.6799L63.8662 73.6799L63.6241 73.7201ZM59.5326 49.0625L59.2905 49.1027L59.2905 49.1027L59.5326 49.0625ZM48.7035 41.3158L48.6634 41.0737L48.6633 41.0737L48.7035 41.3158ZM47.1141 41.7247L46.9887 41.9357C47.0513 41.9729 47.1272 41.9804 47.1959 41.9561L47.1141 41.7247ZM46.6778 41.4752L46.796 41.2602L46.7959 41.2601L46.6778 41.4752ZM39.3238 40.2398L39.3257 40.4852L39.3257 40.4852L39.3238 40.2398ZM29.9225 41.3633L29.9685 41.6044L29.9686 41.6044L29.9225 41.3633ZM20.8942 44.3858L21.0056 44.6046L21.0114 44.6014L20.8942 44.3858ZM15.9616 50.7218L16.2012 50.7752L16.2012 50.7752L15.9616 50.7218ZM10.5213 75.1178L10.7608 75.1712L10.7608 75.1712L10.5213 75.1178ZM17.6609 86.3557L17.6075 86.5953L17.6075 86.5953L17.6609 86.3557ZM21.1457 86.4681L21.3907 86.481C21.3946 86.4071 21.365 86.3354 21.31 86.2858C21.2551 86.2363 21.1807 86.2142 21.1076 86.2257L21.1457 86.4681ZM21.9236 89.3958L21.7748 89.591L21.7748 89.591L21.9236 89.3958ZM27.0357 89.8069L27.2791 89.7759C27.2634 89.6527 27.1582 89.5607 27.0341 89.5615L27.0357 89.8069ZM26.9785 89.5701L26.9715 89.572L27.1003 90.0456L27.1073 90.0437L26.9785 89.5701ZM54.473 87.6618C53.952 87.7787 52.5237 87.9533 50.5175 88.1506C48.5193 88.3472 45.9657 88.5647 43.2081 88.7689C37.6914 89.1774 31.366 89.5324 27.0412 89.5615L27.0445 90.0523C31.3862 90.0231 37.7247 89.6671 43.2443 89.2584C46.0049 89.0539 48.5625 88.8361 50.5656 88.6391C52.5606 88.4429 54.0234 88.2657 54.5805 88.1407L54.473 87.6618ZM56.5116 84.3448C56.4717 85.0144 56.3439 85.7665 56.031 86.3905C55.7219 87.0069 55.2379 87.49 54.473 87.6618L54.5805 88.1407C55.5205 87.9296 56.1106 87.3268 56.4698 86.6105C56.8251 85.9017 56.9598 85.0743 57.0016 84.374L56.5116 84.3448ZM63.382 73.7603C64.1592 78.4438 61.195 82.9252 56.6935 84.1223L56.8197 84.5966C61.5627 83.3353 64.6853 78.6159 63.8662 73.6799L63.382 73.7603ZM59.2905 49.1027L63.382 73.7603L63.8662 73.6799L59.7747 49.0223L59.2905 49.1027ZM48.7437 41.5579C53.7185 40.7324 58.465 44.1279 59.2905 49.1027L59.7747 49.0223C58.9049 43.7801 53.9056 40.2039 48.6634 41.0737L48.7437 41.5579ZM47.1959 41.9561C47.6912 41.7811 48.2082 41.6468 48.7437 41.5579L48.6633 41.0737C48.0994 41.1673 47.5545 41.3088 47.0324 41.4933L47.1959 41.9561ZM46.5596 41.6903C46.6947 41.7646 46.8382 41.8462 46.9887 41.9357L47.2395 41.5138C47.0839 41.4213 46.9357 41.3369 46.796 41.2602L46.5596 41.6903ZM39.3257 40.4852C41.8618 40.4655 44.3643 40.4844 46.5596 41.6903L46.7959 41.2601C44.4718 39.9835 41.8403 39.9748 39.3218 39.9944L39.3257 40.4852ZM29.9686 41.6044C33.0702 41.0115 36.1762 40.5096 39.3257 40.4852L39.3219 39.9944C36.1259 40.0191 32.9837 40.5283 29.8764 41.1223L29.9686 41.6044ZM21.0114 44.6014C23.7862 43.0934 26.8594 42.1985 29.9685 41.6044L29.8764 41.1223C26.7393 41.7218 23.6124 42.6293 20.777 44.1702L21.0114 44.6014ZM20.7829 44.1671C18.2999 45.4317 16.3728 47.7506 15.7221 50.6684L16.2012 50.7752C16.8183 48.0076 18.6464 45.806 21.0056 44.6045L20.7829 44.1671ZM15.7221 50.6684L10.2818 75.0644L10.7608 75.1712L16.2012 50.7752L15.7221 50.6684ZM10.2818 75.0644C9.12485 80.2502 12.4211 85.4388 17.6075 86.5953L17.7143 86.1162C12.7925 85.0188 9.66293 80.0925 10.7608 75.1712L10.2818 75.0644ZM17.6075 86.5953C18.8162 86.8648 20.0254 86.8924 21.1837 86.7106L21.1076 86.2257C20.0088 86.3982 18.8616 86.372 17.7143 86.1162L17.6075 86.5953ZM22.0725 89.2007C21.7921 88.9868 21.6014 88.6244 21.4914 88.1393C21.382 87.6566 21.3593 87.081 21.3907 86.481L20.9006 86.4553C20.8679 87.0784 20.8895 87.7038 21.0127 88.2478C21.1355 88.7893 21.3659 89.2791 21.7748 89.591L22.0725 89.2007ZM27.0341 89.5615C25.66 89.5707 24.4931 89.5468 23.6207 89.4819C23.1841 89.4494 22.8268 89.4071 22.5565 89.3549C22.2728 89.3001 22.1258 89.2413 22.0724 89.2007L21.7748 89.591C21.9286 89.7082 22.18 89.782 22.4634 89.8368C22.7603 89.8941 23.1389 89.9383 23.5843 89.9714C24.4762 90.0377 25.6583 90.0615 27.0373 90.0524L27.0341 89.5615ZM27.2794 89.7777L27.2791 89.7759L26.7923 89.838L26.7925 89.8398L27.2794 89.7777Z" fill="black"/>
<path d="M14.69 80.6969L14.8898 81.8596C15.4155 84.8762 18.3133 86.9166 21.3299 86.3914L45.9993 82.1001C47.779 81.7885 51.6566 80.7072 52.7344 81.2255C55.7927 82.697 59.2805 82.2076 61.7793 80.2635C62.437 79.7515 63.1959 79.3859 64.0077 79.1969L71.1703 77.531C72.4381 77.2361 73.2278 75.9619 72.926 74.697L72.8823 74.5076C72.604 73.335 71.4825 72.5683 70.3094 72.6974L71.1639 72.4976C72.4312 72.2026 73.221 70.9284 72.923 69.6636L72.8754 69.4741C72.577 68.2098 71.2925 67.4161 70.0282 67.7116L63.8761 69.1418C63.8727 69.132 63.8693 69.1247 63.8624 69.1178L74.7258 66.593C75.9937 66.298 76.7834 65.0233 76.485 63.759L76.4378 63.5661C76.1394 62.3051 74.8584 61.5085 73.5906 61.8035L59.873 64.9929C59.7984 65.0135 59.7238 65.0336 59.6526 65.0577L59.4258 58.4782C59.3782 57.1598 58.2866 56.1055 56.9781 56.1055H56.8971C55.5547 56.1497 54.4935 57.2884 54.5411 58.6377L54.6226 61.0108C54.7011 63.2897 53.4235 65.3954 51.3684 66.3844C48.4495 67.7881 44.9627 69.7814 43.8878 69.9689L19.2184 74.2567C16.2018 74.7819 14.1643 77.6802 14.69 80.6969" fill="#9C654F"/>
<path d="M70.8014 72.6975L65.6286 73.8097" stroke="black" stroke-width="0.490826" stroke-linecap="round" stroke-linejoin="round"/>
<path d="M72.7273 67.2648L64.9261 68.942" stroke="black" stroke-width="0.490826" stroke-linecap="round" stroke-linejoin="round"/>
<path fill-rule="evenodd" clip-rule="evenodd" d="M44.3404 69.5899L39.2177 70.6152C39.03 70.6528 38.9557 70.8811 39.0852 71.022C40.2987 72.3419 41.2287 74.2679 41.6619 76.4341C42.1222 78.733 41.9609 80.9941 41.2525 82.7181C41.178 82.8994 41.3355 83.0905 41.5276 83.052L46.6509 82.0267C46.7314 82.0106 46.7985 81.9553 46.8297 81.8793C47.5761 80.062 47.7445 77.7024 47.2664 75.3125C46.8157 73.0613 45.8459 71.0529 44.5692 69.6644C44.5112 69.6013 44.4245 69.5731 44.3404 69.5899Z" fill="black"/>
<path d="M40.5073 76.0672C40.5073 78.2553 42.2811 80.0286 44.4687 80.0286C46.6568 80.0286 48.4307 78.2553 48.4307 76.0672C48.4307 73.8791 46.6568 72.1057 44.4687 72.1057C42.2811 72.1057 40.5073 73.8791 40.5073 76.0672" fill="white"/>
<path d="M40.5073 76.0672C40.5073 78.2553 42.2811 80.0286 44.4687 80.0286C46.6568 80.0286 48.4307 78.2553 48.4307 76.0672C48.4307 73.8791 46.6568 72.1057 44.4687 72.1057C42.2811 72.1057 40.5073 73.8791 40.5073 76.0672" stroke="black" stroke-width="0.490826" stroke-linecap="round" stroke-linejoin="round"/>
<path d="M46.0684 73.9931L45.367 76.3869L42.9364 75.4568" stroke="black" stroke-width="0.490826" stroke-linecap="round" stroke-linejoin="round"/>
<path fill-rule="evenodd" clip-rule="evenodd" d="M33.2749 57.4671C33.3034 57.3346 33.2192 57.2041 33.0867 57.1755C32.9542 57.147 32.8236 57.2313 32.7951 57.3638L29.597 72.2103C29.5685 72.3428 29.6527 72.4733 29.7852 72.5019C29.9177 72.5304 30.0483 72.4461 30.0768 72.3136L33.2749 57.4671ZM57.1499 82.3618C57.1499 82.1991 57.018 82.0673 56.8554 82.0673C56.6927 82.0673 56.5609 82.1991 56.5609 82.3618V84.2245C56.5609 84.3871 56.6927 84.519 56.8554 84.519C57.018 84.519 57.1499 84.3871 57.1499 84.2245V82.3618Z" fill="black"/>
<path fill-rule="evenodd" clip-rule="evenodd" d="M47.5155 41.697C47.4006 41.6252 47.2492 41.6602 47.1774 41.7751L47.2555 42.1133L47.2559 42.1135L47.2586 42.1152L47.2709 42.1231C47.2821 42.1304 47.2993 42.1416 47.3221 42.157C47.3678 42.1876 47.4361 42.2345 47.5242 42.298C47.7005 42.4252 47.9562 42.6193 48.2699 42.8842C48.8972 43.414 49.7557 44.2268 50.6735 45.3542C52.5085 47.6083 54.5816 51.1214 55.5175 56.1504C55.5423 56.2837 55.6704 56.3716 55.8037 56.3468C55.9369 56.322 56.0249 56.1939 56.0001 56.0606C55.0471 50.9402 52.9336 47.3531 51.0541 45.0443C50.1147 43.8904 49.2341 43.0561 48.5866 42.5092C48.2628 42.2357 47.9971 42.034 47.8114 41.9C47.7186 41.833 47.6457 41.7829 47.5954 41.7493C47.5703 41.7324 47.5509 41.7197 47.5375 41.711L47.5219 41.701L47.5175 41.6983L47.5162 41.6974L47.5158 41.6972C47.5157 41.6971 47.5155 41.697 47.3855 41.9051L47.5155 41.697ZM21.7355 44.2593L21.7355 44.2593L21.7359 44.2592L21.7373 44.259L21.7433 44.2579L21.7673 44.2537L21.8605 44.2375C21.9417 44.2236 22.0597 44.204 22.2058 44.1808C22.4983 44.1345 22.9031 44.0744 23.3527 44.0192C24.2599 43.9079 25.3219 43.8205 26.0167 43.8963C27.6831 44.0781 28.5782 44.2923 29.1343 44.5047C29.5404 44.6598 29.7609 44.8093 29.9934 44.9669C30.0793 45.0251 30.1669 45.0845 30.2661 45.1456C30.3815 45.2167 30.5326 45.1809 30.6038 45.0655C30.6749 44.9501 30.6391 44.7989 30.5237 44.7278C30.4486 44.6815 30.3744 44.6312 30.2961 44.5781L30.2961 44.5781C30.0539 44.4138 29.7732 44.2233 29.3094 44.0462C28.6957 43.8118 27.7524 43.5919 26.07 43.4084C25.312 43.3257 24.1983 43.421 23.2929 43.5321C22.8362 43.5881 22.4255 43.6491 22.129 43.696C21.9807 43.7195 21.8609 43.7395 21.7779 43.7537L21.6822 43.7703L21.6571 43.7747L21.6505 43.7759L21.6488 43.7762L21.6484 43.7763L21.6482 43.7763L21.6918 44.0178L21.6482 43.7763C21.5148 43.8004 21.4262 43.9281 21.4503 44.0615C21.4744 44.1948 21.6021 44.2834 21.7355 44.2593Z" fill="black"/>
</g>
<mask id="mask1" mask-type="alpha" maskUnits="userSpaceOnUse" x="33" y="23" width="17" height="25">
<path fill-rule="evenodd" clip-rule="evenodd" d="M33.7014 23.6179H49.06V47.9582H33.7014V23.6179Z" fill="white"/>
</mask>
<g mask="url(#mask1)">
<path d="M46.6058 24.9691C47.2223 25.5105 47.7254 26.4003 47.6248 27.2416C47.5006 28.2782 47.2851 29.0434 47.9153 30.0295C48.2903 30.6156 48.8617 31.1029 49.0266 31.7788C49.0644 31.9344 49.0781 32.1013 49.0251 32.2525C48.8685 32.6996 48.2309 32.8032 48.0273 33.2312C47.9536 33.3853 47.9477 33.5625 47.9433 33.7333C47.9036 35.2686 47.9183 36.4505 46.9823 37.7409C46.1822 38.8447 45.0254 39.6777 43.7502 40.1454L43.8189 44.0745C43.8547 46.1845 42.1766 47.9216 40.067 47.9579C37.9619 47.9937 36.2244 46.3161 36.1836 44.2104C36.138 41.6243 36.593 38.3564 35.2633 36.0387C33.702 33.318 33.0409 30.8286 34.5595 27.8772C35.79 25.4854 38.1582 23.7523 40.8853 23.6336C42.7435 23.5531 45.2178 23.7514 46.6058 24.9691" fill="#9C654F"/>
</g>
<path d="M46.0668 27.498C45.2339 27.5686 44.4412 27.8867 43.7943 28.4119" stroke="black" stroke-width="0.490826" stroke-linecap="round" stroke-linejoin="round"/>
<path d="M43.4808 30.4072C43.423 30.5298 43.4756 30.676 43.5982 30.7338C43.7208 30.7916 43.867 30.739 43.9248 30.6164L43.4808 30.4072ZM45.2748 30.0813C45.3081 30.2127 45.4416 30.2922 45.573 30.2589C45.7044 30.2256 45.7839 30.0921 45.7506 29.9607L45.2748 30.0813ZM43.9248 30.6164C44.0251 30.4036 44.1565 30.165 44.3022 29.9544C44.4508 29.7396 44.6013 29.5727 44.7352 29.4837C44.8642 29.398 44.924 29.4134 44.9663 29.4416C45.0436 29.4932 45.1672 29.6568 45.2748 30.0813L45.7506 29.9607C45.6373 29.5139 45.4766 29.1921 45.2387 29.0333C44.9657 28.8512 44.6793 28.9315 44.4634 29.075C44.2524 29.2153 44.0596 29.4423 43.8985 29.6752C43.7345 29.9123 43.5901 30.1752 43.4808 30.4072L43.9248 30.6164Z" fill="black"/>
<path d="M43.7603 33.2302C44.1584 33.7151 44.6045 34.1681 45.1425 34.4842C45.6799 34.7998 46.3028 34.9161 47.0518 34.9319C47.0518 34.9319 45.6745 36.8176 44.3488 36.0593C43.5449 35.5994 43.3097 34.5662 43.7603 33.2302" stroke="black" stroke-width="0.490826" stroke-linecap="round" stroke-linejoin="round"/>
<path d="M45.372 25.7323C44.5298 25.4073 43.7857 24.8493 42.9233 24.5813C42.0609 24.3133 40.962 24.4365 40.4883 25.2056C40.3435 25.4402 40.2719 25.7122 40.2198 25.9831C39.9406 27.4443 40.3244 29.196 39.5538 30.5537C39.3604 30.8948 38.8166 31.7331 38.3439 31.6345C37.9439 31.5505 37.5448 30.6278 37.0167 30.431C36.4675 30.2273 35.8137 30.2253 35.315 30.5615C34.5493 31.0764 34.407 32.2004 34.7506 33.0549C34.886 33.3911 35.1408 33.7106 35.3504 34.0027C35.6395 34.4061 35.934 34.8759 36.3546 35.1507C35.9762 35.4644 35.5973 35.7775 35.2188 36.0902C35.3563 35.9768 33.1004 33.2183 32.8992 32.9479C32.5055 32.4183 32.1394 31.8671 31.8473 31.2742C31.5499 30.669 31.6765 30.082 31.4105 29.4694C31.2314 29.0576 30.9683 28.689 30.7562 28.2939C30.3538 27.5434 30.1363 26.6752 30.2566 25.8319C30.3214 25.374 30.4833 24.9366 30.6433 24.5028C31.0988 23.2713 31.6093 21.9652 32.6783 21.2024C33.1201 20.8878 33.6315 20.6871 34.1042 20.4215C34.8517 20.0024 35.4971 19.4252 36.2132 18.955C36.9294 18.4843 37.7618 18.1122 38.6153 18.1848C39.3393 18.2457 40.0063 18.6197 40.7279 18.7027C41.4484 18.7856 42.1674 18.5751 42.8914 18.5338C43.7739 18.4833 44.6775 18.6958 45.4152 19.1822C46.1525 19.6691 46.712 20.4363 46.8965 21.3001C46.9623 21.6103 46.9898 21.95 47.195 22.1915C47.3231 22.3426 47.5042 22.4344 47.6706 22.5409C48.5227 23.0848 49.1116 24.5631 48.289 25.3985C48.0539 25.6371 47.7275 25.7887 47.3673 25.8707C46.6938 26.0238 45.9031 25.937 45.372 25.7323Z" fill="black"/>
<path d="M46.6919 32.2107C46.5628 32.1694 46.4246 32.2406 46.3833 32.3696C46.342 32.4987 46.4132 32.6369 46.5423 32.6782L46.6919 32.2107ZM47.3092 32.9236C47.4383 32.9649 47.5764 32.8937 47.6177 32.7647C47.659 32.6356 47.5879 32.4974 47.4588 32.4561L47.3092 32.9236ZM46.5423 32.6782L47.3092 32.9236L47.4588 32.4561L46.6919 32.2107L46.5423 32.6782Z" fill="black"/>
<path d="M41.637 39.6499C41.5165 39.5879 41.3685 39.6354 41.3065 39.7559C41.2445 39.8765 41.292 40.0244 41.4125 40.0864L41.637 39.6499ZM43.8207 40.3831C43.9526 40.3518 44.0342 40.2196 44.0029 40.0877C43.9717 39.9558 43.8395 39.8742 43.7076 39.9055L43.8207 40.3831ZM41.4125 40.0864C41.8018 40.2866 42.8121 40.622 43.8207 40.3831L43.7076 39.9055C42.851 40.1083 41.9635 39.8179 41.637 39.6499L41.4125 40.0864Z" fill="black"/>
<path d="M68.0198 30.3174L66.7865 32.6301C66.0754 33.9555 65.006 35.0449 63.7051 35.7688L61.4362 37.0339L63.7051 38.299C65.0056 39.0243 66.0749 40.1142 66.7865 41.4397L68.0257 43.7524L69.2669 41.4397C69.9785 40.1142 71.0478 39.0243 72.3483 38.299L74.6172 37.0339L72.3483 35.7688C71.0453 35.0458 69.9736 33.9563 69.261 32.6301L68.0198 30.3174Z" fill="white"/>
<path d="M8.6527 13C6.08309 13 4 15.0439 4 17.5652C4 20.0865 6.08309 22.1304 8.6527 22.1304H24.7821C27.3517 22.1304 29.4348 20.0865 29.4348 17.5652C29.4348 15.0439 27.3517 13 24.7821 13H8.6527Z" fill="white"/>
<path fill-rule="evenodd" clip-rule="evenodd" d="M13.8701 16.9131C11.3005 16.9131 9.21738 18.957 9.21738 21.4783C9.21738 23.9996 11.3005 26.0435 13.8701 26.0435H29.9995C32.5691 26.0435 34.6522 23.9996 34.6522 21.4783C34.6522 18.957 32.5691 16.9131 29.9995 16.9131H13.8701Z" stroke="black" stroke-width="0.652174" stroke-linejoin="round"/>
<path d="M58.5099 12.1547L57.8932 13.2822C57.5377 13.9283 57.003 14.4594 56.3526 14.8123L55.2181 15.429L56.3526 16.0458C57.0028 16.3993 57.5375 16.9306 57.8932 17.5768L58.5129 18.7043L59.1335 17.5768C59.4892 16.9306 60.0239 16.3993 60.6741 16.0458L61.8086 15.429L60.6741 14.8123C60.0226 14.4598 59.4868 13.9287 59.1305 13.2822L58.5099 12.1547Z" fill="white" stroke="black" stroke-width="0.4" stroke-linecap="round" stroke-linejoin="round"/>
</g>
<defs>
<clipPath id="clip0">
<rect width="80" height="80" fill="white"/>
</clipPath>
</defs>
</svg>
